<svg xmlns="http://www.w3.org/2000/svg" xmlns:xlink="http://www.w3.org/1999/xlink" width="500" zoomAndPan="magnify" viewBox="0 0 375 374.999991" height="500" preserveAspectRatio="xMidYMid meet" version="1.0"><defs><clipPath id="716ac1a2ab"><path d="M 198.609375 128.773438 L 271.75 128.773438 L 271.75 242.628906 L 198.609375 242.628906 Z M 198.609375 128.773438 " clip-rule="nonzero"/></clipPath><clipPath id="20ebb67c7d"><path d="M 103.226562 223 L 228 223 L 228 272 L 103.226562 272 Z M 103.226562 223 " clip-rule="nonzero"/></clipPath><clipPath id="2b9d2b4093"><path d="M 147.542969 103 L 271.75 103 L 271.75 151.960938 L 147.542969 151.960938 Z M 147.542969 103 " clip-rule="nonzero"/></clipPath><clipPath id="a83b86a4dc"><path d="M 103.226562 132 L 177 132 L 177 247 L 103.226562 247 Z M 103.226562 132 " clip-rule="nonzero"/></clipPath><clipPath id="708e80af40"><path d="M 176.203125 171 L 249.671875 171 L 249.671875 284.464844 L 176.203125 284.464844 Z M 176.203125 171 " clip-rule="nonzero"/></clipPath><clipPath id="e860efa202"><path d="M 125 90.214844 L 199 90.214844 L 199 204 L 125 204 Z M 125 90.214844 " clip-rule="nonzero"/></clipPath></defs><g clip-path="url(#716ac1a2ab)"><path fill="#ffc451" d="M 271.75 164.574219 L 249.476562 151.714844 L 209.773438 128.792969 L 198.636719 135.21875 L 232.046875 154.507812 L 238.34375 158.144531 L 260.613281 171.003906 L 260.613281 242.566406 L 271.75 236.136719 L 271.75 164.574219 " fill-opacity="1" fill-rule="nonzero"/></g><g clip-path="url(#20ebb67c7d)"><path fill="#ffc451" d="M 187.5 259.0625 L 227.207031 236.136719 L 227.207031 223.28125 L 187.503906 246.203125 L 165.230469 259.0625 L 114.390625 229.707031 L 103.253906 223.28125 L 103.253906 236.136719 L 165.230469 271.917969 L 187.5 259.0625 " fill-opacity="1" fill-rule="nonzero"/></g><g clip-path="url(#2b9d2b4093)"><path fill="#ffc451" d="M 209.773438 103.074219 L 187.5 115.933594 L 147.796875 138.855469 L 147.796875 151.714844 L 187.5 128.792969 L 209.773438 115.933594 L 260.613281 145.285156 L 271.75 151.714844 L 271.75 138.855469 L 209.773438 103.074219 " fill-opacity="1" fill-rule="nonzero"/></g><g clip-path="url(#a83b86a4dc)"><path fill="#ffc451" d="M 114.390625 216.851562 L 125.523438 223.28125 L 165.230469 246.203125 L 176.363281 239.773438 L 142.957031 220.484375 L 136.660156 216.851562 L 114.390625 203.992188 L 114.390625 132.425781 L 103.253906 138.855469 L 103.253906 210.421875 L 114.390625 216.851562 " fill-opacity="1" fill-rule="nonzero"/></g><g clip-path="url(#708e80af40)"><path fill="#ffc451" d="M 249.476562 177.433594 L 238.34375 171.003906 L 238.34375 242.566406 L 187.5 271.917969 L 176.363281 278.351562 L 187.5 284.777344 L 249.476562 248.996094 L 249.476562 177.433594 " fill-opacity="1" fill-rule="nonzero"/></g><g clip-path="url(#e860efa202)"><path fill="#ffc451" d="M 125.523438 197.5625 L 136.660156 203.992188 L 136.660156 132.425781 L 187.5 103.074219 L 198.636719 96.644531 L 187.5 90.214844 L 125.523438 125.996094 L 125.523438 197.5625 " fill-opacity="1" fill-rule="nonzero"/></g></svg>